<?xml version="1.0" encoding="UTF-8" standalone="no" ?>
<!DOCTYPE svg PUBLIC "-//W3C//DTD SVG 1.1//EN" "http://www.w3.org/Graphics/SVG/1.1/DTD/svg11.dtd">
<svg xmlns="http://www.w3.org/2000/svg" xmlns:xlink="http://www.w3.org/1999/xlink" version="1.1" width="670" height="380" viewBox="0 0 670 380" xml:space="preserve">
<desc>Created with Fabric.js 3.6.6</desc>
<defs>
</defs>
<g transform="matrix(1 0 0 1 335.76 207.85)"  >
<g style=""   >
		<g transform="matrix(0.04 0 0 0.04 -159.35 -50.76)" style="" id="Camada_x0020_1"  >
		<text xml:space="preserve" font-family="'Segoe UI'" font-size="2839.25" font-style="italic" font-weight="bold" style="stroke: none; stroke-width: 1; stroke-dasharray: none; stroke-linecap: butt; stroke-dashoffset: 0; stroke-linejoin: miter; stroke-miterlimit: 4; fill: rgb(53,181,233); fill-rule: evenodd; opacity: 1; white-space: pre;" ><tspan x="-3785.44" y="891.92" >Painel</tspan></text>
</g>
		<g transform="matrix(0.04 0 0 0.04 -122.59 38.27)" style="" id="Camada_x0020_1"  >
		<text xml:space="preserve" font-family="'Segoe UI Light'" font-size="2839.25" font-style="normal" font-weight="300" style="stroke: none; stroke-width: 1; stroke-dasharray: none; stroke-linecap: butt; stroke-dashoffset: 0; stroke-linejoin: miter; stroke-miterlimit: 4; fill: rgb(27,141,127); fill-rule: evenodd; opacity: 1; white-space: pre;" ><tspan x="-5124.65" y="891.92" >Oncoped</tspan></text>
</g>
		<g transform="matrix(0.04 0 0 0.04 280.92 60.28)" id="Camada_x0020_1"  >
<polygon style="stroke: none; stroke-width: 1; stroke-dasharray: none; stroke-linecap: butt; stroke-dashoffset: 0; stroke-linejoin: miter; stroke-miterlimit: 4; fill: rgb(243,149,72); fill-rule: nonzero; opacity: 1;"  points="454.86,348.24 -454.86,348.24 -454.86,-348.23 454.86,-348.23 " />
</g>
		<g transform="matrix(0.04 0 0 0.04 237.4 29.92)" id="Camada_x0020_1"  >
<polygon style="stroke: none; stroke-width: 1; stroke-dasharray: none; stroke-linecap: butt; stroke-dashoffset: 0; stroke-linejoin: miter; stroke-miterlimit: 4; fill: rgb(243,149,72); fill-rule: nonzero; opacity: 1;"  points="454.88,1151.39 -454.88,1151.39 -454.88,-1151.39 454.88,-1151.39 " />
</g>
		<g transform="matrix(0.04 0 0 0.04 189.58 48.66)" id="Camada_x0020_1"  >
<polygon style="stroke: none; stroke-width: 1; stroke-dasharray: none; stroke-linecap: butt; stroke-dashoffset: 0; stroke-linejoin: miter; stroke-miterlimit: 4; fill: rgb(243,149,72); fill-rule: nonzero; opacity: 1;"  points="454.86,655.68 -454.86,655.68 -454.86,-655.68 454.86,-655.68 " />
</g>
		<g transform="matrix(0.04 0 0 0.04 143.92 17.3)" id="Camada_x0020_1"  >
<polygon style="stroke: none; stroke-width: 1; stroke-dasharray: none; stroke-linecap: butt; stroke-dashoffset: 0; stroke-linejoin: miter; stroke-miterlimit: 4; fill: rgb(243,149,72); fill-rule: nonzero; opacity: 1;"  points="454.86,1485.44 -454.86,1485.44 -454.86,-1485.44 454.86,-1485.44 " />
</g>
		<g transform="matrix(0.04 0 0 0.04 208.64 78.71)" id="Camada_x0020_1"  >
<rect style="stroke: none; stroke-width: 1; stroke-dasharray: none; stroke-linecap: butt; stroke-dashoffset: 0; stroke-linejoin: miter; stroke-miterlimit: 4; fill: rgb(236,230,221); fill-rule: evenodd; opacity: 1;"  x="-2696.995" y="-71.45" rx="5.49" ry="6.08" width="5393.99" height="142.9" />
</g>
		<g transform="matrix(0 -0.06 0.08 0 307.87 -7.58)" id="Camada_x0020_1"  >
<rect style="stroke: none; stroke-width: 1; stroke-dasharray: none; stroke-linecap: butt; stroke-dashoffset: 0; stroke-linejoin: miter; stroke-miterlimit: 4; fill: rgb(236,230,221); fill-rule: evenodd; opacity: 1;"  x="-1472.85" y="-35.28" rx="3" ry="3" width="2945.7" height="70.56" />
</g>
		<g transform="matrix(0.04 0 0 0.04 180.3 -63.07)" id="_3180315022320"  >
<polygon style="stroke: none; stroke-width: 1; stroke-dasharray: none; stroke-linecap: butt; stroke-dashoffset: 0; stroke-linejoin: miter; stroke-miterlimit: 4; fill: rgb(236,230,221); fill-rule: nonzero; opacity: 1;"  points="481.41,560.27 562.49,486.03 -481.53,-560.27 -562.49,-486.09 " />
</g>
		<g transform="matrix(0.04 0 0 0.04 126.08 -68.35)" id="_3180315022320"  >
<polygon style="stroke: none; stroke-width: 1; stroke-dasharray: none; stroke-linecap: butt; stroke-dashoffset: 0; stroke-linejoin: miter; stroke-miterlimit: 4; fill: rgb(236,230,221); fill-rule: nonzero; opacity: 1;"  points="-576.66,463.68 -630.13,365.31 550.31,-463.68 630.13,-376.39 " />
</g>
		<g transform="matrix(0.04 0 0 0.04 226.77 -56.54)" id="_3180315022320"  >
<polygon style="stroke: none; stroke-width: 1; stroke-dasharray: none; stroke-linecap: butt; stroke-dashoffset: 0; stroke-linejoin: miter; stroke-miterlimit: 4; fill: rgb(236,230,221); fill-rule: nonzero; opacity: 1;"  points="-348.56,323.17 419.2,-219.74 348.42,-323.17 -419.2,219.76 " />
</g>
		<g transform="matrix(0.04 0 0 0.04 269.12 -46.25)" id="_3180315022320"  >
<polygon style="stroke: none; stroke-width: 1; stroke-dasharray: none; stroke-linecap: butt; stroke-dashoffset: 0; stroke-linejoin: miter; stroke-miterlimit: 4; fill: rgb(236,230,221); fill-rule: nonzero; opacity: 1;"  points="363.48,564.36 456.94,491.73 -363.48,-564.36 -456.94,-491.84 " />
</g>
		<g transform="matrix(0.04 0 0 0.04 289.15 -19.99)" id="_3180315022320"  >
<ellipse style="stroke: none; stroke-width: 1; stroke-dasharray: none; stroke-linecap: butt; stroke-dashoffset: 0; stroke-linejoin: miter; stroke-miterlimit: 4; fill: rgb(236,230,221); fill-rule: evenodd; opacity: 1;"  cx="0" cy="0" rx="237.12" ry="237.06" />
</g>
		<g transform="matrix(0.04 0 0 0.04 248.81 -71.03)" id="_3180315022320"  >
<ellipse style="stroke: none; stroke-width: 1; stroke-dasharray: none; stroke-linecap: butt; stroke-dashoffset: 0; stroke-linejoin: miter; stroke-miterlimit: 4; fill: rgb(236,230,221); fill-rule: evenodd; opacity: 1;"  cx="0" cy="0" rx="237.12" ry="237.06" />
</g>
		<g transform="matrix(0.04 0 0 0.04 206.21 -42.43)" id="_3180315022320"  >
<ellipse style="stroke: none; stroke-width: 1; stroke-dasharray: none; stroke-linecap: butt; stroke-dashoffset: 0; stroke-linejoin: miter; stroke-miterlimit: 4; fill: rgb(236,230,221); fill-rule: evenodd; opacity: 1;"  cx="0" cy="0" rx="237.12" ry="237.06" />
</g>
		<g transform="matrix(0.04 0 0 0.04 155 -87.61)" id="_3180315022320"  >
<ellipse style="stroke: none; stroke-width: 1; stroke-dasharray: none; stroke-linecap: butt; stroke-dashoffset: 0; stroke-linejoin: miter; stroke-miterlimit: 4; fill: rgb(236,230,221); fill-rule: evenodd; opacity: 1;"  cx="0" cy="0" rx="237.12" ry="237.06" />
</g>
		<g transform="matrix(0.04 0 0 0.04 96.9 -49.51)" id="_3180315022320"  >
<ellipse style="stroke: none; stroke-width: 1; stroke-dasharray: none; stroke-linecap: butt; stroke-dashoffset: 0; stroke-linejoin: miter; stroke-miterlimit: 4; fill: rgb(236,230,221); fill-rule: evenodd; opacity: 1;"  cx="0" cy="0" rx="237.12" ry="237.06" />
</g>
</g>
</g>
</svg>